<svg xmlns="http://www.w3.org/2000/svg" xmlns:xlink="http://www.w3.org/1999/xlink" version="1.1" width="1818pt" height="470pt" viewBox="0 0 1818 470">
<defs>
<clipPath id="clip_0">
<path transform="matrix(1,0,0,-1,0,470)" d="M0 470H1818V0H0Z"/>
</clipPath>
</defs>
<g id="layer_1" data-name="">
<g clip-path="url(#clip_0)">
<path transform="matrix(1,0,0,-1,450.0684,422.2275)" d="M0 0-2.895 1.407-40.157 25.646-45.993 37.945-41.25 81.696-37.8 89.197-18.537 109.697-13.247 112.842C-7.273 171.094-1.307 229.354 4.64 287.613L7.905 294.985 26.211 315.344 32.169 319.112C48.392 323.94 63.128 328.142 77.22 331.956L88.06 330.066 108.824 315.565C109.465 317.691 110.105 319.806 110.746 321.908L114.659 327.937 134.091 344.812 139.737 347.674C156.611 351.504 173.573 355.12 190.152 358.421L199.267 356.886 228.416 339.793C235.245 348.892 243.35 356.215 253.08 362.096 267.12 370.581 284.249 376.006 301.312 377.374 304.903 377.662 309.703 377.992 314.987 377.992 328.041 377.992 339.408 375.945 349.739 371.735 351.724 370.926 353.668 370.038 355.567 369.074L365.865 378.545 373.893 381.954C386.516 382.706 399.279 383.274 411.827 383.645L420.635 380.551 426.861 375.254 440.279 382.592 446.507 384.187 448.571 384.188C460.073 384.188 471.741 384.025 483.259 383.706L493.77 377.838 498.048 371.313C510.961 378.173 527.103 381.965 544.238 381.965 546.906 381.965 549.581 381.868 552.187 381.676 564.621 380.759 593.366 376.628 614.743 358.19 618.375 360.179 622.225 361.865 626.268 363.235 635.019 366.2 644.283 367.642 654.591 367.642 662.461 367.642 669.573 366.8 676.087 365.891 692.893 363.542 709.834 357.273 723.791 348.238 729.043 344.837 733.93 340.981 738.403 336.711L749.813 344.903 760.342 347.005C772.917 344.079 785.746 340.931 798.474 337.647L803.234 335.299 820.602 321.716 824.311 317.106C824.715 316.265 825.119 315.42 825.524 314.574L836.877 322.375 847.879 324.141C861.665 320.121 875.777 315.881 889.824 311.54L895.68 307.78 913.672 287.641 916.901 280.38 942.855 40.95 936.751 28.482 898.205 4.731 895.678 3.527 854.502-10.875 845.311-10.645C833.374-5.788 820.607-.793 807.366 4.2L802.87 7.063 789.062 20.548 785.872 25.561C785.461 26.737 785.051 27.91 784.642 29.078L773.425 21.763 762.222 20.315C750.094 24.348 737.932 28.243 726.073 31.894L720.093 35.783 705.274 52.809C695.915 48.413 685.36 46.188 673.841 46.188 666.594 46.188 659.104 47.084 651.578 48.853 637.86 52.075 618.41 59.076 603.656 74.133 602.038 75.784 600.089 77.824 597.996 80.201 585.158 71.614 568.875 66.862 551.456 66.862 547.643 66.862 543.802 67.096 540.038 67.558 523.868 69.542 509.144 74.62 496.806 82.4L492.854 78.405 483.076 74.559C472.307 75.002 461.425 75.241 450.734 75.268L443.159 77.727 432.589 85.354 424.464 77.999 416.241 74.646C405.176 74.218 393.93 73.562 382.814 72.696L373.611 75.564 364.027 83.346C351.572 72.578 334.947 65.144 317.097 62.377 312.063 61.598 307.008 61.202 302.069 61.202 290.813 61.202 280.226 63.266 270.919 67.228L263.846 58.572 256.575 54.103C244.88 51.527 232.933 48.733 221.066 45.797L211.101 47.363 195.67 56.917 192.99 51.865 176.769 35.291 171.233 31.938C159.372 28.358 146.933 24.365 133.206 19.729L121.339 21.577 115.036 26.218C98.98 9.124 77.085-4.395 49.821-14.029L41.295-14.077Z" fill="#f2ab00"/>
<path transform="matrix(1,0,0,-1,1354.0457,143.2479)" d="M0 0-17.992 20.139C-32.014 24.473-46.059 28.692-59.738 32.681L-83.659 16.243C-86.219 21.686-88.792 27.1-91.384 32.496L-108.751 46.08C-121.387 49.339-134.115 52.463-146.582 55.364L-167.304 40.485C-172.858 47.312-179.644 53.42-187.252 58.345-199.65 66.372-214.72 71.945-229.688 74.036-235.737 74.881-242.31 75.663-249.387 75.663-258.251 75.663-266.152 74.446-273.538 71.943-280.065 69.731-285.88 66.572-290.94 62.51-309.219 84.257-340.035 88.794-352.744 89.731-355.028 89.899-357.381 89.985-359.739 89.985-379.794 89.985-398.044 84.16-409.627 74.264L-421.08 91.731C-432.478 92.048-444.023 92.208-455.397 92.208L-457.461 92.207-478.728 80.575-491.767 91.671C-504.188 91.304-516.82 90.741-529.312 89.997L-546.737 73.971C-550.521 76.625-554.676 78.895-559.145 80.717-567.888 84.28-577.651 86.012-588.991 86.012-593.811 86.012-598.275 85.704-601.627 85.436-616.718 84.226-631.828 79.451-644.173 71.99-653.596 66.296-661.238 58.998-667.538 49.678-671.077 44.441-673.836 38.776-675.745 32.899-676.613 37.736-677.505 42.578-678.421 47.42L-711.286 66.692C-727.759 63.412-744.607 59.82-761.363 56.017L-780.795 39.143C-783.359 30.723-785.896 22.237-788.415 13.659-788.348 14.4-788.28 15.143-788.213 15.883L-823.361 40.428C-837.342 36.644-851.976 32.471-868.099 27.672L-886.405 7.313C-892.379-51.213-898.372-109.737-904.373-168.258-904.638-170.828-905.121-172.04-905.256-172.337L-905.793-173.055C-907.072-174.864-909.368-177.223-913.04-178.184L-932.303-198.685-937.046-242.436-899.783-266.675-858.488-280.752C-830.247-270.771-808.386-256.477-793.512-238.267-792.661-237.224-791.837-236.159-791.031-235.081L-774.931-246.934C-761.077-242.255-748.506-238.219-736.499-234.596L-720.279-218.022C-719.1-212.24-717.971-206.739-716.883-201.463L-686.034-220.564C-674.083-217.607-662.026-214.786-650.197-212.181L-636.373-195.264C-636.048-195.479-635.727-195.698-635.397-195.907-626.225-201.71-614.645-204.778-601.908-204.778-597.632-204.778-593.247-204.434-588.872-203.757-573.111-201.314-558.545-194.753-547.859-185.279-545.389-183.09-543.022-180.701-540.802-178.197L-522.172-193.323C-510.873-192.443-499.456-191.778-488.238-191.344L-472.312-176.926-453.211-190.712C-442.326-190.74-431.275-190.982-420.366-191.431L-408.556-179.493C-396.644-189.594-380.72-196.265-362.357-198.518-359.115-198.916-355.806-199.118-352.521-199.118-332.744-199.118-315.193-192.156-303.981-180.186-299.803-186.443-295.101-191.598-291.036-195.748-278.464-208.578-261.47-214.643-249.426-217.472-242.872-219.012-236.382-219.792-230.137-219.792-219.391-219.792-209.761-217.517-201.513-213.029-197.794-211.006-194.365-208.602-191.254-205.872-190.998-209.164-190.74-212.473-190.48-215.817L-174.079-234.661C-162.11-238.346-149.855-242.271-137.655-246.328L-112.577-229.974C-110.357-236.228-108.112-242.608-105.833-249.131L-92.025-262.615C-78.696-267.642-65.825-272.677-53.768-277.583L-12.592-263.181 25.954-239.43Z" fill="#f2ab00"/>
<path transform="matrix(1,0,0,-1,1354.0457,143.2479)" d="M0 0-17.992 20.139C-32.014 24.473-46.059 28.692-59.738 32.681L-83.659 16.243C-86.219 21.686-88.792 27.1-91.384 32.496L-108.751 46.08C-121.387 49.339-134.115 52.463-146.582 55.364L-167.304 40.485C-172.858 47.312-179.644 53.42-187.252 58.345-199.65 66.372-214.72 71.945-229.688 74.036-235.737 74.881-242.31 75.663-249.387 75.663-258.251 75.663-266.152 74.446-273.538 71.943-280.065 69.731-285.88 66.572-290.94 62.51-309.219 84.257-340.035 88.794-352.744 89.731-355.028 89.899-357.381 89.985-359.739 89.985-379.794 89.985-398.044 84.16-409.627 74.264L-421.08 91.731C-432.478 92.048-444.023 92.208-455.397 92.208L-457.461 92.207-478.728 80.575-491.767 91.671C-504.188 91.304-516.82 90.741-529.312 89.997L-546.737 73.971C-550.521 76.625-554.676 78.895-559.145 80.717-567.888 84.28-577.651 86.012-588.991 86.012-593.811 86.012-598.275 85.704-601.627 85.436-616.718 84.226-631.828 79.451-644.173 71.99-653.596 66.296-661.238 58.998-667.538 49.678-671.077 44.441-673.836 38.776-675.745 32.899-676.613 37.736-677.505 42.578-678.421 47.42L-711.286 66.692C-727.759 63.412-744.607 59.82-761.363 56.017L-780.795 39.143C-783.359 30.723-785.896 22.237-788.415 13.659-788.348 14.4-788.28 15.143-788.213 15.883L-823.361 40.428C-837.342 36.644-851.976 32.471-868.099 27.672L-886.405 7.313C-892.379-51.213-898.372-109.737-904.373-168.258-904.638-170.828-905.121-172.04-905.256-172.337L-905.793-173.055C-907.072-174.864-909.368-177.223-913.04-178.184L-932.303-198.685-937.046-242.436-899.783-266.675-858.488-280.752C-830.247-270.771-808.386-256.477-793.512-238.267-792.661-237.224-791.837-236.159-791.031-235.081L-774.931-246.934C-761.077-242.255-748.506-238.219-736.499-234.596L-720.279-218.022C-719.1-212.24-717.971-206.739-716.883-201.463L-686.034-220.564C-674.083-217.607-662.026-214.786-650.197-212.181L-636.373-195.264C-636.048-195.479-635.727-195.698-635.397-195.907-626.225-201.71-614.645-204.778-601.908-204.778-597.632-204.778-593.247-204.434-588.872-203.757-573.111-201.314-558.545-194.753-547.859-185.279-545.389-183.09-543.022-180.701-540.802-178.197L-522.172-193.323C-510.873-192.443-499.456-191.778-488.238-191.344L-472.312-176.926-453.211-190.712C-442.326-190.74-431.275-190.982-420.366-191.431L-408.556-179.493C-396.644-189.594-380.72-196.265-362.357-198.518-359.115-198.916-355.806-199.118-352.521-199.118-332.744-199.118-315.193-192.156-303.981-180.186-299.803-186.443-295.101-191.598-291.036-195.748-278.464-208.578-261.47-214.643-249.426-217.472-242.872-219.012-236.382-219.792-230.137-219.792-219.391-219.792-209.761-217.517-201.513-213.029-197.794-211.006-194.365-208.602-191.254-205.872-190.998-209.164-190.74-212.473-190.48-215.817L-174.079-234.661C-162.11-238.346-149.855-242.271-137.655-246.328L-112.577-229.974C-110.357-236.228-108.112-242.608-105.833-249.131L-92.025-262.615C-78.696-267.642-65.825-272.677-53.768-277.583L-12.592-263.181 25.954-239.43Z"/>
<path transform="matrix(1,0,0,-1,448.8061,344.16963)" d="M0 0C9.508 2.488 17.385 8.052 22.58 15.401 25.504 19.093 27.289 24.185 27.941 30.545 33.944 89.072 39.938 147.599 45.912 206.128 60.52 210.476 75.185 214.688 89.927 218.678 84.543 159.286 79.108 99.898 73.65 40.511 72.17 24.405 65.715 8.037 54.959-5.131 40.22-23.176 18.605-35.499-4.743-43.751-3.162-29.168-1.581-14.584 0 0" fill="#ffffff"/>
<path transform="matrix(1,0,0,-1,622.5317,163.8035)" d="M0 0C-.313 1.953-.469 2.922-.783 4.848-1.691 4.641-2.146 4.537-3.056 4.328-3.653 2.192-3.952 1.117-4.553-1.049-10.414-24.962-16.029-48.916-21.456-72.907-11.965-70.405-2.421-68.015 7.147-65.749 5.006-43.809 2.648-21.897 0 0M-85.955-186.696C-67.325-106.138-47.197-25.839-23.01 53.6-6.635 57.316 9.778 60.821 26.273 64.106 39.54-6.005 47.877-76.722 54.72-147.505 41.236-150.475 27.826-153.615 14.446-156.926 13.184-138.865 11.829-120.812 10.357-102.764-3.245-106.145-16.772-109.686-30.264-113.386-34.511-133.172-38.617-152.98-42.658-172.798-57.192-177.184-71.614-181.853-85.955-186.696" fill="#ffffff"/>
<path transform="matrix(1,0,0,-1,801.3571,205.06272)" d="M0 0C-.265-10.923-.53-21.847-.795-32.77-2.032-43.129-3.956-51.622-7.93-61.309-11.061-68.94-17.574-77.251-23.998-82.946-32.073-90.105-43.229-94.841-54.597-96.602-64.8-98.183-76.524-97.582-85.189-92.099-92.188-87.67-96.763-81.277-99.833-74.733-103.875-66.12-104.649-56.817-105.101-47.511-102.979-5.233-100.871 37.045-98.784 79.324-98.07 86.588-95.48 93.449-91.438 99.43-87.989 104.532-83.188 109.953-76.014 114.288-67.334 119.533-56.585 122.802-46.453 123.614-37.175 124.357-26.965 124.696-17.954 121.023-11.228 118.282-6.513 114.065-3.509 109.795-.003 104.811 2.047 98.575 2.22 91.53 2.014 83.023 1.808 74.516 1.601 66.009-10.172 64.996-21.924 63.805-33.651 62.445-33.367 71.007-33.083 79.568-32.799 88.13-32.636 93.042-34.267 96.199-37.998 98.639-39.698 99.64-42.806 100.002-46.644 99.554-53.276 98.78-56.562 95.044-58.442 91.674-59.571 89.604-60.01 87.363-60.461 84.851-62.136 42.956-63.82 1.06-65.509-40.835-65.435-47.948-63.448-52.541-59.958-55.89-58.206-57.387-55.698-58.079-52.428-57.615-44.072-56.428-40.675-51.76-38.696-46.321-37.532-43.752-37.069-40.606-36.945-36.875-36.581-25.897-36.217-14.919-35.853-3.94-23.931-2.437-11.977-1.12 0 0" fill="#ffffff"/>
<path transform="matrix(1,0,0,-1,863.197,75.2995)" d="M0 0C-.187-20.5-.374-41-.561-61.499-.012-61.481 .263-61.473 .813-61.455 1.511-60.18 1.859-59.545 2.556-58.283 12.352-38.464 22.609-18.881 33.44 .522 45.263 .542 57.086 .387 68.903 .058 57.177-18.727 46.074-37.729 35.466-57.014 50.927-108.388 63.697-160.318 75.369-212.439 62.907-211.926 50.433-211.652 37.958-211.62 29.997-175.92 21.55-140.301 11.884-104.92 11.478-103.166 11.275-102.294 10.87-100.56 10.454-100.57 10.246-100.575 9.83-100.585 8.987-102.349 8.564-103.237 7.719-105.023 4.199-112.172 2.43-115.835-1.126-123.356-1.398-153.017-1.669-182.678-1.94-212.339-14.833-212.837-27.712-213.59-40.567-214.591-39.247-143.605-37.929-72.618-36.613-1.632-24.421-.906-12.214-.361 0 0" fill="#ffffff"/>
<path transform="matrix(1,0,0,-1,1015.8903,126.97479)" d="M0 0C-.181 6.066-.702 12.802-3.3 18.029-5.798 23.052-9.828 26.788-15.608 27.215-25.099 27.917-28.167 21.301-27.927 10.729-27.787 4.582-23.887-2.425-18.106-10.033-11.535-18.682-4.069-27.227 2.817-35.734 12.026-47.112 21.258-59.16 28.357-71.292 35.449-83.411 40.418-96.232 41.25-109.553 42.143-123.841 40.504-139.997 31.704-153.231 23.219-165.989 5.222-170.755-10.869-168.781-31.021-166.308-49.165-157.01-57.989-140.269-66.284-124.532-68.205-106.357-68.207-89.2-55.799-88.726-43.379-88.481-30.958-88.461-30.568-97.953-30.203-107.835-27.152-116.899-24.368-125.17-19.839-131.664-11.815-132.293 2.077-133.381 3.744-114.768 3.166-106.221 2.517-96.617-2.77-87.54-7.548-79.004-10.856-74.301-14.157-69.381-17.79-64.531-25.925-54.136-34.322-43.699-42.214-33.357-49.707-23.537-56.562-13.265-61.033-1.894-63.164 3.059-64.521 8.347-64.324 13.002-63.858 24.022-61.495 31.816-53.808 39.794-46.074 47.82-29.638 50.748-16.878 49.806-1.067 48.64 17.183 42.985 26.381 30.846 33.585 21.339 36.642 9.685 37.025-1.728 24.696-.996 12.347-.426 0 0" fill="#ffffff"/>
<path transform="matrix(1,0,0,-1,1135.3212,132.87909)" d="M0 0C-.298 5.022-1.971 8.737-5.784 12.331-7.677 13.884-10.628 15.141-13.89 15.724-20.777 16.956-23.745 13.947-25.101 11.186-25.952 9.455-26.323 7.255-26.191 4.761-23.946-37.683-21.676-80.127-19.39-122.569-18.998-129.845-16.863-135.22-12.884-139.968-10.905-142.162-8.206-143.811-4.803-144.551 2.38-146.112 5.556-142.526 6.752-137.516 7.742-135.276 7.928-132.168 7.696-128.324 5.109-85.551 2.54-42.776 0 0M49.249-138.427C48.962-147.776 48.395-157.188 44.255-165.829 41.17-172.268 36.093-178.305 28.869-182.235 19.648-187.252 7.579-186.728-2.517-184.357-14.569-181.526-26.728-176.131-34.796-167.897-41.565-160.988-47.693-153.543-51.38-144.761-55.576-134.765-57.782-125.976-59.267-115.311-61.115-73.284-62.954-31.257-64.779 10.77-64.736 17.891-62.749 24.087-59.254 28.91-56.256 33.047-51.896 37.102-44.979 39.445-35.372 42.701-24.749 41.555-15.257 40.229-4.627 38.744 6.325 34.71 15.282 28.91 22.852 24.009 28.348 18.103 32.057 12.665 36.411 6.282 39.255-.891 40.144-8.352 43.148-51.712 46.189-95.07 49.249-138.427" fill="#ffffff"/>
<path transform="matrix(1,0,0,-1,1252.9346,216.0481)" d="M0 0C-1.825 4.562-2.731 6.811-4.533 11.25-5.502 11.531-5.986 11.671-6.952 11.951-2.755-36.615 1.47-85.178 5.71-133.74-7.832-129.238-21.417-124.882-35.083-120.675-40.945-45.378-46.765 29.922-52.471 105.229-40.049 102.338-27.671 99.297-15.342 96.116 3.193 57.529 20.475 18.544 36.811-20.793 38.739-25.583 39.709-28.012 41.663-32.938 42.678-33.276 43.186-33.445 44.203-33.785 40.38 5.132 36.565 44.049 32.762 82.968 46.569 78.942 60.325 74.805 74.048 70.564 82.699-9.246 91.352-89.057 100.003-168.867 85.805-163.089 71.5-157.51 57.12-152.088 39.292-101.048 20.577-50.25 0 0" fill="#ffffff"/>
</g>
</g>
</svg>
